<?xml version="1.0" encoding="utf-8"?>
<!-- Generator: Adobe Illustrator 24.3.0, SVG Export Plug-In . SVG Version: 6.00 Build 0)  -->
<svg version="1.1" id="Warstwa_1" xmlns="http://www.w3.org/2000/svg" xmlns:xlink="http://www.w3.org/1999/xlink" x="0px" y="0px"
	 viewBox="0 0 214.23 131.92" style="enable-background:new 0 0 214.23 131.92;" xml:space="preserve">
<style type="text/css">
	.st0{fill-rule:evenodd;clip-rule:evenodd;fill:none;stroke:#000000;stroke-width:2;stroke-miterlimit:10;}
	.st1{fill-rule:evenodd;clip-rule:evenodd;}
</style>
<g>
	<path class="st0" d="M15.83,37.14V49.8c0,0,32.7,0,37,0c4.3,0,9.8-3.98,9.8-10.56c0-2.65,1.01-4.37-2.1-7.87l-4.73-5.61
		c-2.71-2.53,0.32-2.53,2.6-2.53c1.27,0,15.62,0,15.62,0V49.8h12.39V23.23h16.7V11.85H49.04c-6.58,0-9.8,6.32-9.61,9.61
		c0.18,3.29,0.79,7.43,6.25,12.4c4.99,4.53-2.47,3.29-3.22,3.29C38.66,37.14,15.83,37.14,15.83,37.14L15.83,37.14z"/>
	<path class="st0" d="M130.51,11.85h-19.99L99.32,49.8h12.47l2.02-5.31h13.16l1.95,5.31h12.22L130.51,11.85L130.51,11.85z
		 M116.59,35.37l4.3-13.92l4.05,13.92H116.59L116.59,35.37z"/>
	<path class="st0" d="M180.6,37.14c-4.81,0-4.81-1.77-4.81-1.77c4.12,0,7.77-6,7.77-12.14c0-6.14-6-11.38-10.81-11.38
		c-4.81,0-26.89,0-26.89,0V49.8h13.66V37.14c0,0,5.82,6.83,8.86,9.61c3.04,2.78,3.29,3.04,7.41,3.04c4.12,0,21.45,0,21.45,0V37.14
		C197.25,37.14,185.41,37.14,180.6,37.14L180.6,37.14z M168.21,28.29c-3.47,0-8.67,0-8.67,0v-6.83c0,0,5.89,0,8.67,0
		C172.18,21.46,172.87,28.29,168.21,28.29L168.21,28.29z"/>
	<polygon class="st0" points="15.83,54.6 29.81,54.6 33.35,67.25 36.64,54.6 51.31,54.6 55.11,67.25 58.91,54.6 71.05,54.6 
		59.92,92.55 48.78,92.55 43.91,74.59 38.41,92.55 27.03,92.55 15.83,54.6 	"/>
	<path class="st0" d="M99.74,54.82H79.75l-11.2,37.94h12.47l2.02-5.31H96.2l1.95,5.31h12.22L99.74,54.82L99.74,54.82z M85.82,78.34
		l4.3-13.92l4.05,13.92H85.82L85.82,78.34z"/>
	<path class="st0" d="M180.86,65.99c-2.28,0-4.76,0.26-2.04,2.79l4.73,5.61c3.11,3.5,3.06,4.96,3.06,7.61
		c0,6.58-6.51,10.56-10.81,10.56l-29.9,0.2c-4.12,0-4.37-0.25-7.41-3.04c-3.04-2.78-8.86-9.61-8.86-9.61v12.65h-13.66V54.81
		c0,0,22.08,0,26.89,0c4.81,0,10.81,5.23,10.81,11.38s-3.65,12.14-7.77,12.14c0,0,1.81,1.82,4.85,1.82c3.04,0,14.73,0.01,14.73,0.01
		c0.75,0,8.2,1.24,3.22-3.29c-5.47-4.97-6.07-9.11-6.25-12.4c-0.18-3.29,2.66-9.88,9.24-9.88h25.57v11.39H180.86L180.86,65.99z
		 M138.31,71.25c-3.47,0-8.67,0-8.67,0v-6.83c0,0,5.89,0,8.67,0C142.29,64.42,142.97,71.25,138.31,71.25L138.31,71.25z"/>
</g>
<g>
	<path d="M25.62,111.92h-5.96v-3.98c0-1.16-0.06-1.88-0.19-2.17c-0.13-0.29-0.41-0.43-0.84-0.43c-0.49,0-0.8,0.17-0.93,0.52
		s-0.2,1.1-0.2,2.27v10.65c0,1.11,0.07,1.84,0.2,2.18s0.43,0.51,0.89,0.51c0.44,0,0.73-0.17,0.87-0.51c0.14-0.34,0.21-1.14,0.21-2.4
		v-2.88h5.96v0.89c0,2.37-0.17,4.06-0.5,5.05c-0.34,0.99-1.08,1.86-2.22,2.61c-1.15,0.75-2.56,1.12-4.24,1.12
		c-1.75,0-3.19-0.32-4.32-0.95c-1.13-0.63-1.88-1.51-2.25-2.63c-0.37-1.12-0.55-2.8-0.55-5.05v-6.7c0-1.65,0.06-2.89,0.17-3.72
		s0.45-1.62,1.01-2.39c0.56-0.76,1.34-1.37,2.34-1.8c1-0.44,2.14-0.66,3.43-0.66c1.76,0,3.21,0.34,4.35,1.02s1.89,1.53,2.25,2.54
		c0.36,1.01,0.54,2.59,0.54,4.73V111.92z"/>
	<path d="M46.1,101.94v22.93h-5.96v-9.63h-1.78v9.63H32.4v-22.93h5.96v8.2h1.78v-8.2H46.1z"/>
	<path d="M63.44,101.94l3.41,22.93h-6.09l-0.32-4.12h-2.13l-0.36,4.12h-6.16l3.04-22.93H63.44z M60.28,116.68
		c-0.3-2.6-0.6-5.81-0.91-9.63c-0.61,4.39-0.99,7.6-1.14,9.63H60.28z"/>
	<path d="M72.5,101.94h4.22c2.81,0,4.72,0.11,5.71,0.33c1,0.22,1.81,0.77,2.44,1.66c0.63,0.89,0.94,2.31,0.94,4.27
		c0,1.78-0.22,2.98-0.67,3.6c-0.44,0.61-1.32,0.98-2.62,1.11c1.18,0.29,1.97,0.68,2.38,1.17s0.66,0.94,0.76,1.35
		c0.1,0.41,0.15,1.54,0.15,3.39v6.05h-5.54v-7.62c0-1.23-0.1-1.99-0.29-2.28c-0.19-0.29-0.7-0.44-1.52-0.44v10.34H72.5V101.94z
		 M78.47,105.86v5.1c0.67,0,1.14-0.09,1.41-0.28c0.27-0.18,0.4-0.78,0.4-1.79v-1.26c0-0.73-0.13-1.2-0.39-1.43
		C79.63,105.97,79.15,105.86,78.47,105.86z"/>
	<path d="M103.07,101.94l3.41,22.93h-6.09l-0.32-4.12h-2.13l-0.36,4.12h-6.16l3.04-22.93H103.07z M99.91,116.68
		c-0.3-2.6-0.6-5.81-0.91-9.63c-0.61,4.39-0.99,7.6-1.14,9.63H99.91z"/>
	<path d="M126.05,111.92h-5.96v-3.98c0-1.16-0.06-1.88-0.19-2.17c-0.13-0.29-0.41-0.43-0.84-0.43c-0.49,0-0.8,0.17-0.93,0.52
		c-0.13,0.35-0.2,1.1-0.2,2.27v10.65c0,1.11,0.07,1.84,0.2,2.18c0.13,0.34,0.43,0.51,0.89,0.51c0.44,0,0.73-0.17,0.87-0.51
		s0.21-1.14,0.21-2.4v-2.88h5.96v0.89c0,2.37-0.17,4.06-0.5,5.05c-0.33,0.99-1.08,1.86-2.22,2.61c-1.15,0.75-2.56,1.12-4.24,1.12
		c-1.75,0-3.19-0.32-4.32-0.95c-1.13-0.63-1.88-1.51-2.25-2.63c-0.37-1.12-0.55-2.8-0.55-5.05v-6.7c0-1.65,0.06-2.89,0.17-3.72
		s0.45-1.62,1.01-2.39c0.56-0.76,1.34-1.37,2.34-1.8c1-0.44,2.14-0.66,3.43-0.66c1.76,0,3.2,0.34,4.35,1.02s1.89,1.53,2.25,2.54
		c0.36,1.01,0.54,2.59,0.54,4.73V111.92z"/>
	<path d="M144.83,101.94v4.59h-3.54v18.34h-5.96v-18.34h-3.53v-4.59H144.83z"/>
	<path d="M150.83,101.94h9.94v4.59h-3.98v4.35h3.72v4.36h-3.72v5.04h4.38v4.59h-10.34V101.94z"/>
	<path d="M167.52,101.94h4.22c2.81,0,4.72,0.11,5.71,0.33s1.81,0.77,2.44,1.66c0.63,0.89,0.94,2.31,0.94,4.27
		c0,1.78-0.22,2.98-0.67,3.6c-0.44,0.61-1.32,0.98-2.62,1.11c1.18,0.29,1.97,0.68,2.38,1.17s0.66,0.94,0.76,1.35
		c0.1,0.41,0.15,1.54,0.15,3.39v6.05h-5.54v-7.62c0-1.23-0.1-1.99-0.29-2.28c-0.19-0.29-0.7-0.44-1.52-0.44v10.34h-5.96V101.94z
		 M173.49,105.86v5.1c0.67,0,1.14-0.09,1.41-0.28c0.27-0.18,0.4-0.78,0.4-1.79v-1.26c0-0.73-0.13-1.2-0.39-1.43
		S174.18,105.86,173.49,105.86z"/>
	<path d="M200.41,108.87h-5.54v-1.7c0-0.79-0.07-1.3-0.21-1.52s-0.38-0.33-0.71-0.33c-0.36,0-0.63,0.15-0.81,0.44
		c-0.18,0.29-0.28,0.74-0.28,1.33c0,0.77,0.1,1.34,0.31,1.73c0.2,0.39,0.76,0.86,1.68,1.4c2.65,1.58,4.33,2.87,5.01,3.88
		c0.69,1.01,1.03,2.64,1.03,4.89c0,1.63-0.19,2.84-0.57,3.61c-0.38,0.77-1.12,1.42-2.22,1.95c-1.09,0.52-2.37,0.79-3.82,0.79
		c-1.6,0-2.96-0.3-4.08-0.91s-1.87-1.37-2.22-2.31c-0.35-0.94-0.52-2.26-0.52-3.98v-1.5h5.54v2.79c0,0.86,0.08,1.41,0.23,1.66
		c0.16,0.25,0.43,0.37,0.83,0.37s0.69-0.16,0.88-0.47c0.19-0.31,0.29-0.77,0.29-1.39c0-1.35-0.18-2.23-0.55-2.65
		c-0.38-0.42-1.31-1.11-2.79-2.08c-1.48-0.98-2.46-1.7-2.95-2.14c-0.48-0.44-0.88-1.06-1.2-1.84s-0.47-1.78-0.47-3
		c0-1.76,0.22-3.04,0.67-3.85s1.17-1.45,2.17-1.9s2.21-0.69,3.62-0.69c1.55,0,2.87,0.25,3.96,0.75c1.09,0.5,1.81,1.13,2.17,1.89
		c0.35,0.76,0.53,2.05,0.53,3.87V108.87z"/>
</g>
<rect x="11.52" y="97" class="st1" width="189.37" height="1.15"/>
</svg>
