<?xml version="1.0" encoding="utf-8"?>
<!-- Generator: Adobe Illustrator 24.3.0, SVG Export Plug-In . SVG Version: 6.00 Build 0)  -->
<svg version="1.1" id="Warstwa_1" xmlns="http://www.w3.org/2000/svg" xmlns:xlink="http://www.w3.org/1999/xlink" x="0px" y="0px"
	 viewBox="0 0 214.2 131.9" style="enable-background:new 0 0 214.2 131.9;" xml:space="preserve">
<style type="text/css">
	.st0{fill:#FFDC18;}
	.st1{fill-rule:evenodd;clip-rule:evenodd;fill:#FFDC18;}
</style>
<g>
	<g>
		<path class="st0" d="M87.4,50.8H73V24.2H58.4c-0.7,0-1.9,0-2.5,0.1c0.1,0.1,0.3,0.4,0.6,0.7l0.1,0.1l4.7,5.6
			c2.7,3.1,2.6,5.1,2.4,7.1c0,0.5-0.1,0.9-0.1,1.4c0,6.8-5.7,11.6-10.8,11.6h-38V36.1h1c0,0,22.8,0,26.6,0c0.1,0,0.3,0,0.6,0
			c2.2,0.2,3,0.1,3.3,0c-0.1-0.2-0.4-0.7-1.3-1.5c-5.4-4.9-6.4-9.2-6.6-13.1c-0.1-1.9,0.8-5,3.1-7.4c1.4-1.5,3.9-3.3,7.5-3.3h55.1
			v13.4H87.4V50.8z M75,48.8h10.4V22.2h16.7v-9.4H49c-3,0-4.9,1.4-6.1,2.6c-1.9,2-2.6,4.5-2.5,5.9c0.2,3.2,0.8,7,5.9,11.7
			c1.2,1.1,2.5,2.5,1.9,3.8c-0.7,1.5-3.1,1.4-5.4,1.2c-0.2,0-0.3,0-0.4,0c-3.3,0-21.2,0-25.6,0v10.7h36c3.6,0,8.8-3.4,8.8-9.6
			c0-0.6,0-1.1,0.1-1.6c0.2-1.8,0.3-3.1-1.9-5.6l-4.7-5.6c-0.5-0.5-1.7-1.6-1.2-2.9c0.5-1.4,2.6-1.4,4.6-1.4H75V48.8z"/>
	</g>
	<g>
		<path class="st0" d="M142.5,50.8h-14.2l-2-5.3h-11.8l-2,5.3H98l11.8-40h21.5L142.5,50.8z M129.6,48.8h10.2l-10.1-36h-18.5
			l-10.6,36h10.4l2-5.3h14.5L129.6,48.8z M126.3,36.4h-11l5.7-18.4L126.3,36.4z M117.9,34.4h5.7l-2.7-9.4L117.9,34.4z"/>
	</g>
	<g>
		<path class="st0" d="M160.5,50.8h-15.7v-40h27.9c5.3,0,11.8,5.7,11.8,12.4c0,5.7-2.9,11.1-6.5,12.7c0.6,0.1,1.4,0.3,2.6,0.3h17.6
			v14.7h-22.5c-4.3,0-4.8-0.3-8-3.2l-0.1-0.1c-2-1.9-5.2-5.4-7.2-7.7V50.8z M146.9,48.8h11.7V34.4l1.8,2.1c0.1,0.1,5.8,6.8,8.8,9.5
			l0.1,0.1c2.9,2.7,3,2.7,6.7,2.7h20.5V38.1h-15.6c-5.5,0-5.8-2.3-5.8-2.8v-1h1c3.4,0,6.8-5.5,6.8-11.1c0-5.5-5.5-10.4-9.8-10.4
			h-25.9V48.8z M168.2,29.3h-9.7v-8.8h9.7c2.7,0,4.2,2.3,4.2,4.6c0,1.1-0.4,2.1-1,2.9C170.9,28.6,169.9,29.3,168.2,29.3z
			 M160.5,27.3h7.7c0.8,0,1.3-0.2,1.7-0.7c0.3-0.4,0.5-0.9,0.5-1.6c0-1.3-0.8-2.6-2.2-2.6h-7.7V27.3z"/>
	</g>
	<g>
		<path class="st0" d="M60.7,93.5H48l-4.2-15.4l-4.7,15.4H26.3l-11.8-40h16.1l2.7,9.8l2.6-9.8h16.2l3.1,10.2l3.1-10.2h14.2
			L60.7,93.5z M49.5,91.5h9.6l10.5-36H59.7l-4.5,15.1l-4.5-15.1H37.4l-4,15.5l-4.3-15.5H17.2l10.6,36h9.9L44,71L49.5,91.5z"/>
	</g>
	<g>
		<path class="st0" d="M111.7,93.8H97.5l-1.9-5.3H83.7l-2,5.3H67.2L79,53.8h21.5L111.7,93.8z M98.8,91.8h10.2L99,55.8H80.5
			L69.9,91.8h10.4l2-5.3h14.5L98.8,91.8z M95.5,79.3h-11l5.7-18.4L95.5,79.3z M87.2,77.3h5.7l-2.7-9.4L87.2,77.3z"/>
	</g>
	<g>
		<path class="st0" d="M130.6,93.8H115V53.8h27.9c5.3,0,11.8,5.7,11.8,12.4c0,5.6-2.8,10.8-6.3,12.5c0.6,0.2,1.4,0.4,2.3,0.4
			c3,0,14.7,0,14.7,0c0.1,0,0.3,0,0.6,0c2.2,0.2,3,0.1,3.3,0c-0.1-0.2-0.4-0.7-1.3-1.5c-5.4-4.9-6.4-9.2-6.6-13.1
			c-0.1-2.1,0.8-5.4,3.2-7.9c1.9-2,4.3-3,7.1-3h26.6V67l-17.4,0c-1.3,0-1.9,0.1-2.1,0.2c0.1,0.2,0.3,0.5,0.8,0.9l0.1,0.1l4.7,5.6
			c3.3,3.7,3.3,5.5,3.3,8.1V82c0,7.2-6.9,11.6-11.8,11.6l-29.9,0.2c-4.3,0-4.8-0.3-8-3.3c-2.1-1.9-5.3-5.5-7.2-7.7V93.8z
			 M128.6,77.4l1.8,2.1c0.1,0.1,5.8,6.8,8.8,9.5c3,2.7,3,2.8,6.7,2.8l29.9-0.2c4,0,9.8-3.7,9.8-9.6v-0.1c0-2.4,0-3.7-2.8-6.8
			l-4.7-5.6c-0.8-0.8-1.8-1.9-1.4-3.1c0.4-1.1,1.7-1.3,3.1-1.4v0h16.4v-9.4h-24.6c-2.2,0-4.1,0.8-5.6,2.4c-1.8,2-2.7,4.7-2.6,6.4
			c0.2,3.2,0.8,7.1,5.9,11.7c1.2,1.1,2.5,2.5,1.9,3.9c-0.7,1.5-3.1,1.4-5.4,1.2c-0.2,0-0.3,0-0.4,0l0,0c0,0-11.7,0-14.7,0
			c-3.4,0-5.5-2-5.6-2.1l-1.7-1.7h2.4c3.4,0,6.8-5.5,6.8-11.1c0-5.5-5.5-10.4-9.8-10.4H117v35.9h11.7V77.4z M138.3,72.3h-9.7v-8.8
			h9.7c2.7,0,4.2,2.3,4.2,4.6c0,1.1-0.4,2.1-1,2.9C141,71.5,140,72.3,138.3,72.3z M130.6,70.3h7.7c0.8,0,1.3-0.2,1.7-0.7
			c0.3-0.4,0.5-0.9,0.5-1.6c0-1.3-0.8-2.6-2.2-2.6h-7.7V70.3z"/>
	</g>
</g>
<g>
	<path class="st0" d="M25.6,111.9h-6v-4c0-1.2-0.1-1.9-0.2-2.2c-0.1-0.3-0.4-0.4-0.8-0.4c-0.5,0-0.8,0.2-0.9,0.5s-0.2,1.1-0.2,2.3
		v10.7c0,1.1,0.1,1.8,0.2,2.2s0.4,0.5,0.9,0.5c0.4,0,0.7-0.2,0.9-0.5c0.1-0.3,0.2-1.1,0.2-2.4v-2.9h6v0.9c0,2.4-0.2,4.1-0.5,5.1
		c-0.3,1-1.1,1.9-2.2,2.6c-1.1,0.8-2.6,1.1-4.2,1.1c-1.8,0-3.2-0.3-4.3-0.9s-1.9-1.5-2.2-2.6c-0.4-1.1-0.6-2.8-0.6-5.1V110
		c0-1.7,0.1-2.9,0.2-3.7s0.4-1.6,1-2.4c0.6-0.8,1.3-1.4,2.3-1.8c1-0.4,2.1-0.7,3.4-0.7c1.8,0,3.2,0.3,4.4,1s1.9,1.5,2.2,2.5
		s0.5,2.6,0.5,4.7L25.6,111.9L25.6,111.9z"/>
	<path class="st0" d="M46.1,101.9v22.9h-6v-9.6h-1.8v9.6h-6v-22.9h6v8.2h1.8v-8.2H46.1z"/>
	<path class="st0" d="M63.4,101.9l3.4,22.9h-6.1l-0.3-4.1h-2.1l-0.4,4.1h-6.2l3-22.9H63.4z M60.3,116.7c-0.3-2.6-0.6-5.8-0.9-9.6
		c-0.6,4.4-1,7.6-1.1,9.6H60.3z"/>
	<path class="st0" d="M72.5,101.9h4.2c2.8,0,4.7,0.1,5.7,0.3c1,0.2,1.8,0.8,2.4,1.7c0.6,0.9,0.9,2.3,0.9,4.3c0,1.8-0.2,3-0.7,3.6
		c-0.4,0.6-1.3,1-2.6,1.1c1.2,0.3,2,0.7,2.4,1.2s0.7,0.9,0.8,1.3c0.1,0.4,0.2,1.5,0.2,3.4v6.1h-5.5v-7.6c0-1.2-0.1-2-0.3-2.3
		s-0.7-0.4-1.5-0.4v10.3h-6V101.9z M78.5,105.9v5.1c0.7,0,1.1-0.1,1.4-0.3c0.3-0.2,0.4-0.8,0.4-1.8v-1.3c0-0.7-0.1-1.2-0.4-1.4
		C79.6,106,79.2,105.9,78.5,105.9z"/>
	<path class="st0" d="M103.1,101.9l3.4,22.9h-6.1l-0.3-4.1h-2.1l-0.4,4.1h-6.2l3-22.9H103.1z M99.9,116.7c-0.3-2.6-0.6-5.8-0.9-9.6
		c-0.6,4.4-1,7.6-1.1,9.6H99.9z"/>
	<path class="st0" d="M126.1,111.9h-6v-4c0-1.2-0.1-1.9-0.2-2.2c-0.1-0.3-0.4-0.4-0.8-0.4c-0.5,0-0.8,0.2-0.9,0.5s-0.2,1.1-0.2,2.3
		v10.7c0,1.1,0.1,1.8,0.2,2.2c0.1,0.3,0.4,0.5,0.9,0.5c0.4,0,0.7-0.2,0.9-0.5s0.2-1.1,0.2-2.4v-2.9h6v0.9c0,2.4-0.2,4.1-0.5,5.1
		c-0.3,1-1.1,1.9-2.2,2.6c-1.2,0.8-2.6,1.1-4.2,1.1c-1.8,0-3.2-0.3-4.3-0.9s-1.9-1.5-2.2-2.6c-0.4-1.1-0.6-2.8-0.6-5.1V110
		c0-1.7,0.1-2.9,0.2-3.7s0.4-1.6,1-2.4c0.6-0.8,1.3-1.4,2.3-1.8c1-0.4,2.1-0.7,3.4-0.7c1.8,0,3.2,0.3,4.3,1s1.9,1.5,2.2,2.5
		s0.5,2.6,0.5,4.7L126.1,111.9L126.1,111.9z"/>
	<path class="st0" d="M144.8,101.9v4.6h-3.5v18.3h-6v-18.3h-3.5v-4.6H144.8z"/>
	<path class="st0" d="M150.8,101.9h9.9v4.6h-4v4.3h3.7v4.4h-3.7v5h4.4v4.6h-10.3L150.8,101.9L150.8,101.9z"/>
	<path class="st0" d="M167.5,101.9h4.2c2.8,0,4.7,0.1,5.7,0.3s1.8,0.8,2.4,1.7c0.6,0.9,0.9,2.3,0.9,4.3c0,1.8-0.2,3-0.7,3.6
		c-0.4,0.6-1.3,1-2.6,1.1c1.2,0.3,2,0.7,2.4,1.2s0.7,0.9,0.8,1.3c0.1,0.4,0.1,1.5,0.1,3.4v6.1h-5.5v-7.6c0-1.2-0.1-2-0.3-2.3
		c-0.2-0.3-0.7-0.4-1.5-0.4v10.3h-6L167.5,101.9L167.5,101.9z M173.5,105.9v5.1c0.7,0,1.1-0.1,1.4-0.3c0.3-0.2,0.4-0.8,0.4-1.8v-1.3
		c0-0.7-0.1-1.2-0.4-1.4S174.2,105.9,173.5,105.9z"/>
	<path class="st0" d="M200.4,108.9h-5.5v-1.7c0-0.8-0.1-1.3-0.2-1.5s-0.4-0.3-0.7-0.3c-0.4,0-0.6,0.2-0.8,0.4s-0.3,0.7-0.3,1.3
		c0,0.8,0.1,1.3,0.3,1.7c0.2,0.4,0.8,0.9,1.7,1.4c2.6,1.6,4.3,2.9,5,3.9c0.7,1,1,2.6,1,4.9c0,1.6-0.2,2.8-0.6,3.6
		c-0.4,0.8-1.1,1.4-2.2,1.9c-1.1,0.5-2.4,0.8-3.8,0.8c-1.6,0-3-0.3-4.1-0.9s-1.9-1.4-2.2-2.3c-0.4-0.9-0.5-2.3-0.5-4v-1.5h5.5v2.8
		c0,0.9,0.1,1.4,0.2,1.7c0.2,0.2,0.4,0.4,0.8,0.4s0.7-0.2,0.9-0.5s0.3-0.8,0.3-1.4c0-1.3-0.2-2.2-0.6-2.7c-0.4-0.4-1.3-1.1-2.8-2.1
		c-1.5-1-2.5-1.7-2.9-2.1c-0.5-0.4-0.9-1.1-1.2-1.8s-0.5-1.8-0.5-3c0-1.8,0.2-3,0.7-3.8s1.2-1.4,2.2-1.9s2.2-0.7,3.6-0.7
		c1.6,0,2.9,0.2,4,0.8c1.1,0.5,1.8,1.1,2.2,1.9c0.4,0.8,0.5,2.1,0.5,3.9L200.4,108.9L200.4,108.9z"/>
</g>
<rect x="11.5" y="97" class="st1" width="189.4" height="1.2"/>
</svg>
